<svg width="64" height="58" viewBox="0 0 64 58" fill="none" xmlns="http://www.w3.org/2000/svg">
<path opacity="0.5" d="M1.92001 27.4958V33.5119C1.92001 35.9935 3.95041 38.0238 6.43041 38.0238H21.4704V47.0462H33.504V38.0238H36.5136V27.4958H1.92001Z" fill="white"/>
<path d="M48.544 0.0078125H6.432C2.8864 0.0078125 0 2.89421 0 6.43981V33.5118C0 37.059 2.8864 39.9454 6.432 39.9454H19.552V45.1278H12.448C11.3872 45.1278 10.528 45.9886 10.528 47.0462C10.528 48.1054 11.3872 48.9678 12.448 48.9678H19.5504H35.4256H36.5136C37.5728 48.9678 38.432 48.1054 38.432 47.0462C38.432 45.9886 37.5728 45.1278 36.5136 45.1278H35.4256V39.9438H36.5136C37.5728 39.9438 38.432 39.0846 38.432 38.0254C38.432 36.9662 37.5728 36.1038 36.5136 36.1038H35.4256H19.552H6.432C5.0032 36.1038 3.8416 34.9406 3.8416 33.5134V29.4174H36.5136C37.576 29.4174 38.4352 28.5566 38.4352 27.4974C38.4352 26.4382 37.576 25.5774 36.5136 25.5774H3.84V6.43981C3.84 5.01101 5.0032 3.84781 6.4304 3.84781H48.5408C49.9728 3.84781 51.1344 5.01101 51.1344 6.43981V13.9598C51.1344 15.0206 51.9936 15.8798 53.0528 15.8798C54.1152 15.8798 54.9744 15.019 54.9744 13.9598V6.43981C54.976 2.89421 52.0912 0.0078125 48.544 0.0078125ZM31.584 39.9438V45.1262H23.392V39.9438H31.584Z" fill="white"/>
<path d="M59.072 57.9918H44.032C41.3168 57.9918 39.104 55.7806 39.104 53.0638V22.9838C39.104 20.2654 41.3168 18.0542 44.032 18.0542H59.072C61.7872 18.0542 64 20.2654 64 22.9838V53.0638C64 55.7806 61.7888 57.9918 59.072 57.9918ZM44.032 21.8958C43.4448 21.8958 42.944 22.395 42.944 22.9838V53.0638C42.944 53.6542 43.4448 54.1534 44.032 54.1534H59.072C59.6592 54.1534 60.16 53.6542 60.16 53.0638V22.9838C60.16 22.3934 59.6592 21.8958 59.072 21.8958H44.032Z" fill="white"/>
<path d="M53.8064 27.9118H49.2976C48.2352 27.9118 47.376 27.051 47.376 25.9918C47.376 24.9326 48.2352 24.0718 49.2976 24.0718H53.8064C54.8688 24.0718 55.728 24.9326 55.728 25.9918C55.7296 27.051 54.8688 27.9118 53.8064 27.9118Z" fill="white"/>
</svg>
